<svg width="27" height="10" viewBox="0 0 27 10" fill="none" xmlns="http://www.w3.org/2000/svg">
<path d="M0.78122 5.62501L24.3265 5.62501L21.5857 8.3525C21.2799 8.65688 21.2787 9.15153 21.5831 9.45735C21.8874 9.76321 22.3821 9.76434 22.688 9.46L26.7701 5.39751L26.7708 5.39677C27.0759 5.09239 27.0769 4.59614 26.7709 4.29075L26.7702 4.29001L22.688 0.227517C22.3823 -0.0767798 21.8876 -0.075725 21.5831 0.230173C21.2788 0.535992 21.2799 1.03064 21.5858 1.33501L24.3265 4.06251L0.78122 4.06251C0.349736 4.06251 -3.00564e-05 4.41227 -3.00941e-05 4.84376C-3.01318e-05 5.27524 0.349736 5.62501 0.78122 5.62501Z" fill="#02AC8F"/>
</svg>
